<svg width="1381" height="751" viewBox="0 0 1381 751" fill="none" xmlns="http://www.w3.org/2000/svg">
<path d="M191.211 489.969H315.82V499.93C315.82 522.586 313.151 542.638 307.812 560.086C302.604 576.232 293.815 591.336 281.445 605.398C253.451 636.909 217.839 652.664 174.609 652.664C132.422 652.664 96.2891 637.43 66.2109 606.961C36.1328 576.362 21.0938 539.643 21.0938 496.805C21.0938 453.055 36.3932 415.945 66.9922 385.477C97.5911 354.878 134.831 339.578 178.711 339.578C202.279 339.578 224.284 344.396 244.727 354.031C264.258 363.667 283.464 379.292 302.344 400.906L269.922 431.961C245.182 399.018 215.039 382.547 179.492 382.547C147.591 382.547 120.833 393.549 99.2188 415.555C77.6042 437.169 66.7969 464.253 66.7969 496.805C66.7969 530.398 78.8411 558.068 102.93 579.812C125.456 599.995 149.87 610.086 176.172 610.086C198.568 610.086 218.685 602.534 236.523 587.43C254.362 572.195 264.323 553.966 266.406 532.742H191.211V489.969ZM505.078 456.766H549.219V647H505.078V627.078C486.979 644.005 467.513 652.469 446.68 652.469C420.378 652.469 398.633 642.964 381.445 623.953C364.388 604.552 355.859 580.333 355.859 551.297C355.859 522.781 364.388 499.018 381.445 480.008C398.503 460.997 419.857 451.492 445.508 451.492C467.643 451.492 487.5 460.607 505.078 478.836V456.766ZM400.781 551.297C400.781 569.526 405.664 584.37 415.43 595.828C425.456 607.417 438.086 613.211 453.32 613.211C469.596 613.211 482.747 607.612 492.773 596.414C502.799 584.826 507.812 570.112 507.812 552.273C507.812 534.435 502.799 519.721 492.773 508.133C482.747 496.805 469.727 491.141 453.711 491.141C438.607 491.141 425.977 496.87 415.82 508.328C405.794 519.917 400.781 534.24 400.781 551.297ZM648.633 317.117V647H604.688V317.117H648.633ZM748.242 317.117V647H704.297V317.117H748.242ZM977.148 562.234H840.82C841.992 577.859 847.07 590.294 856.055 599.539C865.039 608.654 876.562 613.211 890.625 613.211C901.562 613.211 910.612 610.607 917.773 605.398C924.805 600.19 932.812 590.555 941.797 576.492L978.906 597.195C973.177 606.961 967.122 615.359 960.742 622.391C954.362 629.292 947.526 635.021 940.234 639.578C932.943 644.005 925.065 647.26 916.602 649.344C908.138 651.427 898.958 652.469 889.062 652.469C860.677 652.469 837.891 643.354 820.703 625.125C803.516 606.766 794.922 582.417 794.922 552.078C794.922 522 803.255 497.651 819.922 479.031C836.719 460.672 858.984 451.492 886.719 451.492C914.714 451.492 936.849 460.411 953.125 478.25C969.271 495.958 977.344 520.503 977.344 551.883L977.148 562.234ZM932.031 526.297C925.911 502.859 911.133 491.141 887.695 491.141C882.357 491.141 877.344 491.987 872.656 493.68C867.969 495.242 863.672 497.586 859.766 500.711C855.99 503.706 852.734 507.352 850 511.648C847.266 515.945 845.182 520.828 843.75 526.297H932.031ZM1025.39 456.766H1069.34V473.758C1077.41 465.294 1084.57 459.5 1090.82 456.375C1097.2 453.12 1104.75 451.492 1113.48 451.492C1125.07 451.492 1137.17 455.268 1149.8 462.82L1129.69 503.055C1121.35 497.065 1113.22 494.07 1105.27 494.07C1081.32 494.07 1069.34 512.169 1069.34 548.367V647H1025.39V456.766ZM1252.54 611.648L1166.99 456.766H1217.97L1276.17 566.141L1330.47 456.766H1380.08L1228.52 750.516H1178.32L1252.54 611.648Z" fill="black"/>
<path d="M0.585938 330L64.0625 5.78125L167.578 240.156L274.805 5.78125L331.836 330H285.156L256.055 147.969L166.797 343.867L80.0781 147.773L47.6562 330H0.585938ZM431.445 139.766V248.945C431.445 280.456 443.88 296.211 468.75 296.211C493.62 296.211 506.055 280.456 506.055 248.945V139.766H550V249.922C550 265.156 548.112 278.307 544.336 289.375C540.69 299.271 534.375 308.19 525.391 316.133C510.547 329.023 491.667 335.469 468.75 335.469C445.964 335.469 427.148 329.023 412.305 316.133C403.19 308.19 396.745 299.271 392.969 289.375C389.323 280.521 387.5 267.37 387.5 249.922V139.766H431.445ZM400.195 79.2188C400.195 71.6667 402.93 65.2214 408.398 59.8828C413.867 54.4141 420.443 51.6797 428.125 51.6797C435.807 51.6797 442.383 54.4141 447.852 59.8828C453.32 65.2214 456.055 71.7318 456.055 79.4141C456.055 87.2266 453.32 93.8672 447.852 99.3359C442.122 104.674 435.547 107.344 428.125 107.344C420.312 107.344 413.672 104.609 408.203 99.1406C402.865 93.4115 400.195 86.7708 400.195 79.2188ZM481.836 79.2188C481.836 71.6667 484.57 65.2214 490.039 59.8828C495.638 54.4141 502.214 51.6797 509.766 51.6797C517.578 51.6797 524.154 54.4141 529.492 59.8828C534.961 65.2214 537.695 71.7318 537.695 79.4141C537.695 87.2266 534.961 93.8672 529.492 99.3359C523.763 104.674 517.188 107.344 509.766 107.344C502.083 107.344 495.508 104.609 490.039 99.1406C484.57 93.6719 481.836 87.0312 481.836 79.2188ZM649.414 0.117188V330H605.469V0.117188H649.414ZM749.023 0.117188V330H705.078V0.117188H749.023ZM977.93 245.234H841.602C842.773 260.859 847.852 273.294 856.836 282.539C865.82 291.654 877.344 296.211 891.406 296.211C902.344 296.211 911.393 293.607 918.555 288.398C925.586 283.19 933.594 273.555 942.578 259.492L979.688 280.195C973.958 289.961 967.904 298.359 961.523 305.391C955.143 312.292 948.307 318.021 941.016 322.578C933.724 327.005 925.846 330.26 917.383 332.344C908.919 334.427 899.74 335.469 889.844 335.469C861.458 335.469 838.672 326.354 821.484 308.125C804.297 289.766 795.703 265.417 795.703 235.078C795.703 205 804.036 180.651 820.703 162.031C837.5 143.672 859.766 134.492 887.5 134.492C915.495 134.492 937.63 143.411 953.906 161.25C970.052 178.958 978.125 203.503 978.125 234.883L977.93 245.234ZM932.812 209.297C926.693 185.859 911.914 174.141 888.477 174.141C883.138 174.141 878.125 174.987 873.438 176.68C868.75 178.242 864.453 180.586 860.547 183.711C856.771 186.706 853.516 190.352 850.781 194.648C848.047 198.945 845.964 203.828 844.531 209.297H932.812ZM1026.17 139.766H1070.12V156.758C1078.19 148.294 1085.35 142.5 1091.6 139.375C1097.98 136.12 1105.53 134.492 1114.26 134.492C1125.85 134.492 1137.96 138.268 1150.59 145.82L1130.47 186.055C1122.14 180.065 1114 177.07 1106.05 177.07C1082.1 177.07 1070.12 195.169 1070.12 231.367V330H1026.17V139.766Z" fill="black"/>
</svg>
